# xmcd CD database file generated by OrangeCD 5.2
#
# Track frame offsets:
#	150
#	17355
#	32330
#	45895
#	61901
#	76956
#	92875
#	105445
#	125720
#	142720
#	156111
#	169183
#	182967
#	198684
#
# Disc length: 2857 seconds
#
# Revision: 1
# Processed by: cddbd v1.5.1PL0 Copyright (c) Steve Scherf et al.
# Submitted via: OrangeCD 5.2
#
DISCID=a80b270e
DTITLE=Cato Sanden - Cross My Heart
DYEAR=2001
DGENRE=Country
TTITLE0=Money Honey
TTITLE1=Ramblin' Man
TTITLE2=You Went Away
TTITLE3=Hello Mary Lou
TTITLE4=No Guarantee
TTITLE5=Dreams Of A Dreamer
TTITLE6=You Gotta Commit
TTITLE7=She's Feelin' Lonely
TTITLE8=C'mon And Get It
TTITLE9=You're Gone For Good
TTITLE10=Lovebug
TTITLE11=Honky Tonk Music
TTITLE12=Cross My Heart
TTITLE13=I'm Outta Here
EXTD=
EXTT0=
EXTT1=
EXTT2=
EXTT3=
EXTT4=
EXTT5=
EXTT6=
EXTT7=
EXTT8=
EXTT9=
EXTT10=
EXTT11=
EXTT12=
EXTT13=
PLAYORDER=
